<svg width="28" height="28" viewBox="0 0 28 28" fill="none" xmlns="http://www.w3.org/2000/svg">
<path d="M16.2049 3.36016L10.7332 2.49683C6.17158 1.78516 4.05991 3.32516 3.33658 7.88683L2.47324 13.3585C2.00658 16.3452 2.49658 18.2818 4.18824 19.4602C5.07491 20.0902 6.28824 20.5102 7.86324 20.7552L13.3349 21.6185C17.8966 22.3302 20.0082 20.7902 20.7316 16.2285L21.5832 10.7568C21.7232 9.8585 21.7816 9.0535 21.7349 8.34183C21.5832 5.42516 19.8682 3.93183 16.2049 3.36016ZM9.61324 10.9085C8.24824 10.9085 7.13991 9.80016 7.13991 8.44683C7.13991 7.08183 8.24824 5.9735 9.61324 5.9735C10.9666 5.9735 12.0749 7.08183 12.0749 8.44683C12.0749 9.80016 10.9666 10.9085 9.61324 10.9085Z" fill="#8B5CF6"/>
<path d="M23.9166 15.7152L22.1666 20.9768C20.7083 25.3635 18.3749 26.5302 13.9882 25.0718L8.72658 23.3218C7.08158 22.7735 5.89158 22.0968 5.12158 21.2452C5.85658 21.5368 6.70825 21.7585 7.67658 21.9102L13.1599 22.7735C13.9066 22.8902 14.6066 22.9485 15.2599 22.9485C19.1099 22.9485 21.1749 20.8718 21.8866 16.4035L22.7383 10.9318C22.8549 10.2551 22.9016 9.66015 22.9016 9.11182C24.6749 10.5701 24.9316 12.6468 23.9166 15.7152Z" fill="#8B5CF6"/>
</svg>
