<svg width="52" height="53" viewBox="0 0 52 53" fill="none" xmlns="http://www.w3.org/2000/svg">
<rect x="0.5" y="1" width="51" height="51" rx="9.5" stroke="#737373"/>
<g clip-path="url(#clip0_221_188)">
<path d="M19.3332 46.5003C23.0132 46.5003 25.9998 43.5137 25.9998 39.8337V33.167H19.3332C15.6532 33.167 12.6665 36.1537 12.6665 39.8337C12.6665 43.5137 15.6532 46.5003 19.3332 46.5003Z" fill="#D4D4D4"/>
<path d="M12.6665 26.4997C12.6665 22.8197 15.6532 19.833 19.3332 19.833H25.9998V33.1663H19.3332C15.6532 33.1663 12.6665 30.1797 12.6665 26.4997Z" fill="#D4D4D4"/>
<path d="M12.6665 13.1667C12.6665 9.48667 15.6532 6.5 19.3332 6.5H25.9998V19.8333H19.3332C15.6532 19.8333 12.6665 16.8467 12.6665 13.1667Z" fill="#D4D4D4"/>
<path d="M25.9998 6.5H32.6664C36.3464 6.5 39.3331 9.48667 39.3331 13.1667C39.3331 16.8467 36.3464 19.8333 32.6664 19.8333H25.9998V6.5Z" fill="#D4D4D4"/>
<path d="M39.3331 26.4997C39.3331 30.1797 36.3464 33.1663 32.6664 33.1663C28.9864 33.1663 25.9998 30.1797 25.9998 26.4997C25.9998 22.8197 28.9864 19.833 32.6664 19.833C36.3464 19.833 39.3331 22.8197 39.3331 26.4997Z" fill="#D4D4D4"/>
</g>
<defs>
<clipPath id="clip0_221_188">
<rect width="40" height="40" fill="white" transform="translate(6 6.5)"/>
</clipPath>
</defs>
</svg>
