<svg width="83" height="32" viewBox="0 0 83 32" fill="none" xmlns="http://www.w3.org/2000/svg">
<path d="M22.9866 14.1587C22.5585 14.5895 22.2306 15.1093 22.0264 15.6811C21.8222 16.2531 21.7466 16.863 21.805 17.4674L21.7847 17.4471C21.8448 18.1586 21.7487 18.8746 21.5035 19.5453C21.2582 20.2158 20.8697 20.8248 20.3648 21.3297C19.8599 21.8346 19.2509 22.2233 18.5802 22.4684C17.9097 22.7137 17.1936 22.8097 16.4822 22.7496L16.5025 22.7699C15.6514 22.6907 14.7967 22.8759 14.0546 23.3003C13.3127 23.7247 12.7196 24.3675 12.3564 25.1413C11.9933 25.9151 11.8775 26.782 12.025 27.624C12.1726 28.466 12.5763 29.2419 13.1809 29.846C13.7856 30.4501 14.5619 30.8531 15.4039 30.9998C16.2461 31.1467 17.1128 31.0301 17.8863 30.6662C18.6598 30.3023 19.3021 29.7088 19.7258 28.9664C20.1495 28.224 20.334 27.3691 20.254 26.518L20.2755 26.5384C20.2154 25.8269 20.3113 25.1108 20.5565 24.4402C20.8018 23.7696 21.1905 23.1606 21.6953 22.6557C22.2002 22.1509 22.8092 21.7622 23.4798 21.517C24.1504 21.2718 24.8664 21.1758 25.578 21.2359L25.5565 21.2155C26.2517 21.278 26.9515 21.164 27.591 20.8841C28.2303 20.6042 28.7888 20.1674 29.2145 19.6142C29.6401 19.061 29.9193 18.4092 30.026 17.7194C30.1327 17.0296 30.0636 16.324 29.825 15.6679C29.5864 15.012 29.1861 14.4268 28.6612 13.9667C28.1362 13.5066 27.5036 13.1865 26.822 13.036C26.1404 12.8855 25.4318 12.9095 24.7619 13.1057C24.092 13.302 23.4826 13.6642 22.99 14.1587H22.9866Z" fill="#F5F5F5"/>
<path d="M14.6532 20.1062L14.6317 20.0859C15.2364 20.1468 15.8471 20.0726 16.4197 19.8686C16.9922 19.6646 17.5122 19.336 17.9422 18.9064C18.372 18.4768 18.7012 17.9569 18.9055 17.3845C19.11 16.8121 19.1847 16.2016 19.1242 15.5968L19.1457 15.6171C19.0856 14.9055 19.1816 14.1896 19.4267 13.5189C19.672 12.8484 20.0607 12.2394 20.5655 11.7345C21.0705 11.2296 21.6794 10.8409 22.35 10.5958C23.0207 10.3505 23.7366 10.2546 24.4482 10.3146L24.4267 10.2943C25.2779 10.3743 26.1329 10.1896 26.8753 9.76573C27.6178 9.34183 28.2113 8.69921 28.575 7.92557C28.9388 7.15193 29.055 6.2849 28.9079 5.44275C28.7609 4.6006 28.3576 3.82434 27.753 3.21983C27.1486 2.61533 26.3723 2.21201 25.5301 2.06491C24.688 1.9178 23.821 2.03405 23.0473 2.39781C22.2736 2.76156 21.6311 3.35513 21.2072 4.09753C20.7832 4.83993 20.5986 5.69502 20.6786 6.54618L20.6583 6.52471C20.7185 7.23625 20.6227 7.95237 20.3776 8.62305C20.1324 9.29374 19.7437 9.90282 19.2389 10.4078C18.7339 10.9126 18.1248 11.3014 17.4542 11.5465C16.7834 11.7916 16.0673 11.8874 15.3558 11.8272L15.3761 11.8487C14.7714 11.7878 14.1606 11.862 13.5881 12.066C13.0156 12.2699 12.4956 12.5986 12.0656 13.0282C11.6357 13.4578 11.3066 13.9777 11.1022 14.5501C10.8978 15.1224 10.8231 15.733 10.8836 16.3378L10.8632 16.3175C10.9231 17.0289 10.827 17.7449 10.5817 18.4154C10.3364 19.0859 9.94779 19.6948 9.44296 20.1997C8.93808 20.7045 8.32917 21.0931 7.65867 21.3385C6.98816 21.5837 6.27221 21.6798 5.56076 21.62L5.5811 21.6403C4.72994 21.5603 3.87485 21.7449 3.13244 22.1688C2.39005 22.5928 1.79649 23.2353 1.43273 24.009C1.06897 24.7827 0.952709 25.6497 1.09982 26.4918C1.24693 27.334 1.65026 28.1102 2.25475 28.7147C2.85926 29.3193 3.63552 29.7226 4.47767 29.8696C5.31982 30.0167 6.18685 29.9005 6.9605 29.5367C7.73414 29.173 8.37675 28.5795 8.80065 27.8371C9.2246 27.0946 9.40919 26.2396 9.32921 25.3884L9.35067 25.4087C9.29057 24.6972 9.38659 23.9812 9.63183 23.3106C9.87696 22.64 10.2657 22.031 10.7705 21.5261C11.2754 21.0212 11.8844 20.6325 12.555 20.3874C13.2256 20.1422 13.9416 20.0462 14.6532 20.1062Z" fill="#F5F5F5"/>
<path d="M7.08266 17.8388C7.51082 17.4082 7.83861 16.8884 8.04267 16.3164C8.24673 15.7445 8.322 15.1345 8.26313 14.5301L8.28458 14.5505C8.22448 13.8388 8.32046 13.1225 8.56582 12.4517C8.81119 11.781 9.20004 11.1719 9.70521 10.6669C10.2104 10.162 10.8196 9.77342 11.4905 9.52835C12.1614 9.28327 12.8777 9.18759 13.5893 9.248L13.5679 9.22766C14.4187 9.30738 15.2735 9.1227 16.0156 8.69882C16.7576 8.27495 17.3508 7.63249 17.7144 6.85909C18.0779 6.08568 18.194 5.21897 18.047 4.37714C17.8999 3.5353 17.4966 2.75934 16.8924 2.15505C16.2881 1.55077 15.5121 1.14758 14.6703 1.00048C13.8285 0.853371 12.9617 0.969519 12.1884 1.33306C11.4149 1.69659 10.7725 2.28984 10.3486 3.0319C9.9247 3.77395 9.74 4.6287 9.81976 5.47955L9.79942 5.45922C9.85952 6.17072 9.7635 6.88676 9.51826 7.55735C9.27302 8.22794 8.88445 8.83694 8.37955 9.34184C7.87466 9.84674 7.26565 10.2354 6.59506 10.4805C5.92447 10.7258 5.20844 10.8218 4.49694 10.7617L4.51727 10.782C3.82207 10.7197 3.12236 10.8339 2.48302 11.1139C1.84367 11.394 1.28535 11.8309 0.859805 12.3842C0.434262 12.9374 0.155266 13.5892 0.0486519 14.2789C-0.0579512 14.9688 0.0112838 15.6743 0.249941 16.3302C0.488598 16.9862 0.888972 17.5712 1.41395 18.0312C1.93892 18.4913 2.57151 18.8113 3.25311 18.9618C3.93469 19.1122 4.64323 19.0881 5.31307 18.8919C5.98289 18.6955 6.59233 18.3334 7.08491 17.8388H7.08266Z" fill="#F5F5F5"/>
<path d="M43.2685 12.1667V14.7481H35.8442V12.1667H43.2685ZM37.5321 9.23235H40.9408V20.7052C40.9408 21.117 41.0327 21.4222 41.2166 21.6208C41.4005 21.812 41.6946 21.9076 42.0991 21.9076C42.2315 21.9076 42.3786 21.8966 42.5404 21.8745C42.7022 21.8524 42.8419 21.8267 42.9596 21.7973L43.5001 24.3566C43.1251 24.4669 42.761 24.5478 42.408 24.5993C42.0624 24.6508 41.7204 24.6765 41.3821 24.6765C40.1539 24.6765 39.2052 24.3713 38.5359 23.7609C37.8667 23.1431 37.5321 22.2753 37.5321 21.1574V9.23235ZM44.7577 24.5V12.1667H48.1665V24.5H44.7577ZM46.4566 10.5892C45.9491 10.5892 45.5152 10.4201 45.1549 10.0818C44.7945 9.74348 44.6143 9.33531 44.6143 8.85728C44.6143 8.37924 44.7945 7.97475 45.1549 7.64381C45.5152 7.30551 45.9491 7.13636 46.4566 7.13636C46.9714 7.13636 47.409 7.30551 47.7693 7.64381C48.1297 7.97475 48.3099 8.37924 48.3099 8.85728C48.3099 9.33531 48.1297 9.74348 47.7693 10.0818C47.409 10.4201 46.9714 10.5892 46.4566 10.5892ZM53.6933 24.7317C52.9137 24.7317 52.2114 24.5956 51.5863 24.3235C50.9685 24.044 50.4831 23.6322 50.1301 23.088C49.7771 22.5437 49.6006 21.8671 49.6006 21.0582C49.6006 20.3668 49.7256 19.7932 49.9756 19.3372C50.2257 18.8739 50.5677 18.4988 51.0016 18.212C51.4355 17.9252 51.9282 17.7082 52.4798 17.5612C53.0314 17.4141 53.6161 17.3111 54.2338 17.2523C54.9472 17.1861 55.5208 17.1199 55.9547 17.0537C56.3886 16.9875 56.7049 16.8882 56.9035 16.7559C57.1094 16.6161 57.2123 16.4176 57.2123 16.1602V16.105C57.2123 15.5975 57.0505 15.2041 56.727 14.9246C56.4107 14.6452 55.9621 14.5054 55.3811 14.5054C54.7707 14.5054 54.2816 14.6415 53.9139 14.9136C53.5535 15.1783 53.3145 15.5166 53.1969 15.9285L50.0308 15.6748C50.1926 14.9246 50.5088 14.2774 50.9795 13.7332C51.4502 13.1816 52.0569 12.7588 52.7997 12.4646C53.5499 12.1631 54.4177 12.0123 55.4032 12.0123C56.0871 12.0123 56.7417 12.0932 57.3668 12.255C57.9919 12.4168 58.5472 12.6668 59.0325 13.0051C59.5253 13.3361 59.9151 13.7663 60.2019 14.2958C60.4887 14.8253 60.6321 15.4541 60.6321 16.1822V24.5H57.3778V22.7791H57.2896C57.091 23.1689 56.8262 23.5108 56.4953 23.805C56.1643 24.0918 55.7672 24.3198 55.3039 24.489C54.8406 24.6508 54.3037 24.7317 53.6933 24.7317ZM54.6751 22.3709C55.1752 22.3709 55.6164 22.2716 55.9989 22.0731C56.3886 21.8671 56.6902 21.595 56.9035 21.2567C57.1241 20.9111 57.2344 20.525 57.2344 20.0984V18.7857C57.1314 18.8519 56.9844 18.9144 56.7931 18.9732C56.6093 19.032 56.4034 19.0835 56.1754 19.1276C55.9474 19.1718 55.7194 19.2122 55.4914 19.249C55.2634 19.2784 55.0575 19.3078 54.8737 19.3372C54.4692 19.3961 54.1162 19.4917 53.8146 19.6241C53.5131 19.7491 53.2778 19.9219 53.1086 20.1425C52.9468 20.3558 52.8659 20.6243 52.8659 20.9478C52.8659 21.4112 53.0351 21.7642 53.3734 22.0069C53.7117 22.2496 54.1456 22.3709 54.6751 22.3709ZM66.0376 17.3736V24.5H62.6288V12.1667H65.9824V14.362H66.1038C66.3832 13.6339 66.8282 13.0603 67.4386 12.6411C68.049 12.2219 68.8138 12.0123 69.7331 12.0123C70.5862 12.0123 71.329 12.1998 71.9615 12.5749C72.6013 12.95 73.0978 13.4832 73.4508 14.1745C73.8038 14.8658 73.9803 15.6932 73.9803 16.6566V24.5H70.5715V17.2633C70.5715 16.5132 70.3766 15.9248 69.9869 15.4983C69.5971 15.0644 69.0602 14.8474 68.3763 14.8474C67.9203 14.8474 67.5158 14.9504 67.1628 15.1563C66.8098 15.3549 66.534 15.6417 66.3354 16.0167C66.1369 16.3918 66.0376 16.8441 66.0376 17.3736Z" fill="#F5F5F5"/>
</svg>
