<svg width="52" height="53" viewBox="0 0 52 53" fill="none" xmlns="http://www.w3.org/2000/svg">
<rect x="0.5" y="1" width="51" height="51" rx="9.5" stroke="#737373"/>
<g clip-path="url(#clip0_221_205)">
<path d="M27.25 26.5C27.25 32.3586 22.7641 37.125 17.25 37.125C11.7359 37.125 7.25 32.3586 7.25 26.5C7.25 20.6414 11.7359 15.875 17.25 15.875C22.7641 15.875 27.25 20.6414 27.25 26.5ZM34.75 16.5C33.8621 16.5 32.1876 16.9314 30.9494 19.8205C30.1759 21.6251 29.75 23.9974 29.75 26.5C29.75 29.0026 30.1759 31.3749 30.9494 33.1795C32.1876 36.0686 33.8621 36.5 34.75 36.5C35.6379 36.5 37.3124 36.0686 38.5506 33.1795C39.3241 31.3749 39.75 29.0026 39.75 26.5C39.75 23.9974 39.3241 21.6251 38.5506 19.8205C37.3124 16.9314 35.6379 16.5 34.75 16.5ZM43.5 16.5C43.1685 16.5 42.8506 16.6317 42.6161 16.8661C42.3817 17.1006 42.25 17.4185 42.25 17.75V35.25C42.25 35.5815 42.3817 35.8995 42.6161 36.1339C42.8505 36.3683 43.1685 36.5 43.5 36.5C43.8315 36.5 44.1495 36.3683 44.3839 36.1339C44.6183 35.8995 44.75 35.5815 44.75 35.25V17.75C44.75 17.4185 44.6183 17.1006 44.3839 16.8661C44.1494 16.6317 43.8315 16.5 43.5 16.5Z" fill="#D4D4D4"/>
</g>
<defs>
<clipPath id="clip0_221_205">
<rect width="40" height="40" fill="white" transform="translate(6 6.5)"/>
</clipPath>
</defs>
</svg>
