<svg width="28" height="28" viewBox="0 0 28 28" fill="none" xmlns="http://www.w3.org/2000/svg">
<path d="M20.4517 9.06516C20.37 9.0535 20.2884 9.0535 20.2067 9.06516C18.3984 9.00683 16.9634 7.52516 16.9634 5.70516C16.9634 3.85016 18.4684 2.3335 20.335 2.3335C22.19 2.3335 23.7067 3.8385 23.7067 5.70516C23.695 7.52516 22.26 9.00683 20.4517 9.06516Z" fill="#8B5CF6"/>
<path d="M24.255 17.15C22.9484 18.025 21.1167 18.3516 19.425 18.13C19.8684 17.1733 20.1017 16.1117 20.1134 14.9916C20.1134 13.825 19.8567 12.7166 19.3667 11.7483C21.0934 11.515 22.925 11.8416 24.2434 12.7166C26.0867 13.93 26.0867 15.925 24.255 17.15Z" fill="#8B5CF6"/>
<path d="M7.51335 9.06516C7.59502 9.0535 7.67669 9.0535 7.75835 9.06516C9.56669 9.00683 11.0017 7.52516 11.0017 5.70516C11.0017 3.8385 9.49669 2.3335 7.63002 2.3335C5.77502 2.3335 4.27002 3.8385 4.27002 5.70516C4.27002 7.52516 5.70502 9.00683 7.51335 9.06516Z" fill="#8B5CF6"/>
<path d="M7.64168 14.9919C7.64168 16.1235 7.88668 17.1969 8.33002 18.1652C6.68501 18.3402 4.97001 17.9902 3.71001 17.1619C1.86668 15.9369 1.86668 13.9419 3.71001 12.7169C4.95835 11.8769 6.72001 11.5385 8.37668 11.7252C7.89835 12.7052 7.64168 13.8135 7.64168 14.9919Z" fill="#8B5CF6"/>
<path d="M14.1401 18.515C14.0468 18.5033 13.9418 18.5033 13.8368 18.515C11.6901 18.445 9.9751 16.6833 9.9751 14.5133C9.98676 12.2967 11.7718 10.5 14.0001 10.5C16.2168 10.5 18.0134 12.2967 18.0134 14.5133C18.0018 16.6833 16.2984 18.445 14.1401 18.515Z" fill="#8B5CF6"/>
<path d="M10.3483 20.9301C8.58668 22.1084 8.58668 24.0451 10.3483 25.2117C12.355 26.5534 15.645 26.5534 17.6517 25.2117C19.4134 24.0334 19.4134 22.0967 17.6517 20.9301C15.6567 19.5884 12.3667 19.5884 10.3483 20.9301Z" fill="#8B5CF6"/>
</svg>
