<svg width="52" height="53" viewBox="0 0 52 53" fill="none" xmlns="http://www.w3.org/2000/svg">
<rect x="0.5" y="1" width="51" height="51" rx="9.5" stroke="#737373"/>
<path d="M25.9905 9.83301C22.6942 9.83301 19.4718 10.8105 16.731 12.6418C13.9902 14.4732 11.854 17.0762 10.5925 20.1216C9.33107 23.1671 9.00102 26.5182 9.64411 29.7512C10.2872 32.9842 11.8745 35.9539 14.2054 38.2848C16.5363 40.6157 19.506 42.203 22.739 42.8461C25.972 43.4892 29.3231 43.1591 32.3686 41.8977C35.414 40.6362 38.017 38.5 39.8484 35.7592C41.6797 33.0184 42.6572 29.796 42.6572 26.4997C42.6574 24.3109 42.2264 22.1436 41.3889 20.1214C40.5514 18.0992 39.3237 16.2618 37.776 14.7142C36.2284 13.1665 34.391 11.9388 32.3688 11.1013C30.3466 10.2638 28.1793 9.83283 25.9905 9.83301ZM31.2897 35.0871C31.2273 35.2427 31.1324 35.3831 31.0113 35.499C30.8902 35.6148 30.7458 35.7035 30.5876 35.759C30.4295 35.8144 30.2613 35.8355 30.0944 35.8206C29.9274 35.8058 29.7656 35.7554 29.6197 35.673L25.0953 32.1573L22.1914 34.8363C22.124 34.8861 22.0452 34.9182 21.9622 34.9295C21.8792 34.9408 21.7947 34.9311 21.7164 34.9012L22.2731 29.9205L22.2909 29.9346L22.3023 29.8363C22.3023 29.8363 30.4439 22.4238 30.7756 22.1079C31.1114 21.7929 31.0006 21.7246 31.0006 21.7246C31.0197 21.3404 30.3981 21.7246 30.3981 21.7246L19.6105 28.6647L15.118 27.1347C15.118 27.1347 14.428 26.8872 14.363 26.343C14.2947 25.803 15.1405 25.5097 15.1405 25.5097L33.0022 18.4138C33.0022 18.4138 34.4705 17.7596 34.4705 18.843L31.2897 35.0871Z" fill="#D4D4D4"/>
</svg>
